<svg width="32" height="32" viewBox="0 0 38 38" fill="none" xmlns="http://www.w3.org/2000/svg">
<path d="M19 36.9065C28.9411 36.9065 37 28.8686 37 18.9532C37 9.03794 28.9411 1 19 1C9.05887 1 1 9.03794 1 18.9532C1 28.8686 9.05887 36.9065 19 36.9065Z" stroke="#007AFF" stroke-width="2" stroke-linecap="round" stroke-linejoin="round"/>
<path d="M27.1 35.8443C25.7748 36.5888 24.282 36.9862 22.7611 36.9994C21.2402 37.0126 19.7407 36.6411 18.4028 35.9196C17.0648 35.1981 15.932 34.1502 15.1101 32.8738C14.2882 31.5973 13.804 30.1339 13.7029 28.6202C13.6017 27.1065 13.8868 25.592 14.5315 24.218C15.1762 22.844 16.1596 21.6554 17.3897 20.7632C18.6198 19.8709 20.0566 19.3042 21.5658 19.1159C23.075 18.9276 24.6074 19.1238 26.02 19.6863C25.5425 16.6325 23.9534 13.8613 21.5565 11.9023C19.1596 9.94336 16.123 8.93407 13.0271 9.06736C9.9312 9.20065 6.9931 10.4672 4.77437 12.6248C2.55565 14.7825 1.21191 17.68 1 20.7635" stroke="#007AFF" stroke-width="2" stroke-linecap="round" stroke-linejoin="round"/>
</svg>
