<svg width="160" height="38" viewBox="0 0 160 38" fill="none" xmlns="http://www.w3.org/2000/svg">
<path d="M19 36.9065C28.9411 36.9065 37 28.8686 37 18.9532C37 9.03794 28.9411 1 19 1C9.05887 1 1 9.03794 1 18.9532C1 28.8686 9.05887 36.9065 19 36.9065Z" stroke="#007AFF" stroke-width="2" stroke-linecap="round" stroke-linejoin="round"/>
<path d="M27.1 35.8443C25.7748 36.5888 24.282 36.9862 22.7611 36.9994C21.2402 37.0126 19.7407 36.6411 18.4028 35.9196C17.0648 35.1981 15.932 34.1502 15.1101 32.8738C14.2882 31.5973 13.804 30.1339 13.7029 28.6202C13.6017 27.1065 13.8868 25.592 14.5315 24.218C15.1762 22.844 16.1596 21.6554 17.3897 20.7632C18.6198 19.8709 20.0566 19.3042 21.5658 19.1159C23.075 18.9276 24.6074 19.1238 26.02 19.6863C25.5425 16.6325 23.9534 13.8613 21.5565 11.9023C19.1596 9.94336 16.123 8.93407 13.0271 9.06736C9.9312 9.20065 6.9931 10.4672 4.77437 12.6248C2.55565 14.7825 1.21191 17.68 1 20.7635" stroke="#007AFF" stroke-width="2" stroke-linecap="round" stroke-linejoin="round"/>
<path d="M57.0864 29.9995C55.6792 29.9995 54.5718 29.6547 53.7644 28.965C52.957 28.2754 52.3111 27.3328 51.8266 26.1374C51.3652 24.9191 50.9269 23.5397 50.5117 21.9995L47.1551 9.58572C46.9013 8.6202 46.959 7.72365 47.3281 6.89606C47.6972 6.04549 48.4239 5.48227 49.5081 5.20641C50.5232 4.93055 51.4229 4.99951 52.2072 5.41331C52.9916 5.8271 53.5222 6.55124 53.799 7.58572L56.9134 18.9305C57.1902 19.9191 57.4786 20.6432 57.7785 21.103C58.1014 21.5627 58.609 21.7122 59.301 21.5512C59.947 21.3903 60.293 21.034 60.3392 20.4823C60.3853 19.9305 60.27 19.1489 59.9931 18.1374L57.7785 9.75813C57.4786 8.60871 57.5132 7.6202 57.8823 6.79262C58.2745 5.94204 59.0357 5.39032 60.1661 5.13744C61.3196 4.86158 62.2424 5.01101 62.9345 5.58572C63.6496 6.13744 64.1341 6.91905 64.3878 7.93055L67.1907 18.9305C67.4906 20.057 67.8136 20.8156 68.1596 21.2064C68.5288 21.5972 69.0017 21.7122 69.5784 21.5512C70.2243 21.3673 70.5358 21.011 70.5127 20.4823C70.4896 19.9305 70.4089 19.1374 70.2705 18.103C70.0629 16.4938 69.8783 15.1719 69.7168 14.1374C69.5784 13.103 69.4631 12.2409 69.3708 11.5512C69.3016 10.8616 69.267 10.2294 69.267 9.65469C69.267 8.36733 69.6476 7.27538 70.4089 6.37882C71.1702 5.45928 72.2083 4.99951 73.5232 4.99951C74.8613 4.99951 75.8763 5.4133 76.5684 6.24089C77.2605 7.04549 77.6065 8.16043 77.6065 9.58572C77.6065 10.5053 77.4681 11.4708 77.1913 12.4823C76.9375 13.4938 76.6837 14.4478 76.43 15.3443L74.4922 21.9995C74.0538 23.5168 73.6155 24.8846 73.1772 26.103C72.762 27.2984 72.1968 28.2524 71.4816 28.965C70.7665 29.6547 69.7514 29.9995 68.4365 29.9995C66.8447 29.9995 65.599 29.5053 64.6993 28.5168C63.7996 27.5282 63.1075 25.9076 62.623 23.6547H62.3808C61.9194 25.9076 61.3081 27.5282 60.5468 28.5168C59.7855 29.5053 58.632 29.9995 57.0864 29.9995Z" fill="#007AFF"/>
<path d="M81.7776 29.8961C80.0705 29.8961 78.7325 29.4363 77.7636 28.5168C76.8177 27.5972 76.3448 26.3099 76.3448 24.6547C76.3448 22.9995 76.8985 21.8041 78.0058 21.0685C79.1131 20.3099 80.5319 19.9305 82.2621 19.9305C83.2771 19.9305 84.1999 19.9995 85.0304 20.1374C85.8609 20.2754 86.6106 20.4708 87.2796 20.7237H87.3835V20.2064C87.3835 19.6777 87.1874 19.2639 86.7952 18.965C86.403 18.6432 85.907 18.4938 85.3072 18.5168C84.7305 18.5168 84.2345 18.5512 83.8193 18.6202C83.4271 18.6892 82.9311 18.8041 82.3313 18.965C81.224 19.2409 80.2666 19.2179 79.4592 18.8961C78.6517 18.5742 78.0981 17.942 77.7982 16.9995C77.5213 16.011 77.579 15.1834 77.9712 14.5168C78.3864 13.8501 79.0093 13.3328 79.8398 12.965C80.555 12.6202 81.3508 12.3328 82.2275 12.103C83.1272 11.8731 84.0961 11.7581 85.1342 11.7581C88.1563 11.7581 90.3709 12.4938 91.7782 13.965C93.2084 15.4133 93.9236 17.8501 93.9236 21.2754V26.6202C93.9236 27.5627 93.6352 28.3443 93.0585 28.965C92.4818 29.5857 91.6859 29.8961 90.6708 29.8961C89.5635 29.8961 88.733 29.5857 88.1793 28.965C87.6488 28.3443 87.3835 27.5857 87.3835 26.6892V25.8961H86.6914C86.6914 26.4938 86.576 27.103 86.3453 27.7237C86.1377 28.3443 85.6879 28.8616 84.9958 29.2754C84.3268 29.6892 83.2541 29.8961 81.7776 29.8961ZM82.1237 22.3443C82.1237 22.7351 82.2621 23.011 82.5389 23.1719C82.8388 23.3328 83.4732 23.4133 84.4421 23.4133C85.3188 23.4133 85.9301 23.3328 86.2761 23.1719C86.6222 23.011 86.7952 22.7351 86.7952 22.3443C86.7952 21.9765 86.6222 21.7237 86.2761 21.5857C85.9301 21.4248 85.3188 21.3443 84.4421 21.3443C83.4732 21.3443 82.8388 21.4248 82.5389 21.5857C82.2621 21.7237 82.1237 21.9765 82.1237 22.3443Z" fill="#007AFF"/>
<path d="M100.837 29.8961C99.1297 29.8961 97.7917 29.4363 96.8228 28.5168C95.8769 27.5972 95.404 26.3099 95.404 24.6547C95.404 22.9995 95.9577 21.8041 97.065 21.0685C98.1723 20.3099 99.5911 19.9305 101.321 19.9305C102.336 19.9305 103.259 19.9995 104.09 20.1374C104.92 20.2754 105.67 20.4708 106.339 20.7237H106.443V20.2064C106.443 19.6777 106.247 19.2639 105.854 18.965C105.462 18.6432 104.966 18.4938 104.366 18.5168C103.79 18.5168 103.294 18.5512 102.878 18.6202C102.486 18.6892 101.99 18.8041 101.39 18.965C100.283 19.2409 99.3258 19.2179 98.5183 18.8961C97.7109 18.5742 97.1573 17.942 96.8574 16.9995C96.5805 16.011 96.6382 15.1834 97.0304 14.5168C97.4456 13.8501 98.0685 13.3328 98.899 12.965C99.6141 12.6202 100.41 12.3328 101.287 12.103C102.186 11.8731 103.155 11.7581 104.193 11.7581C107.215 11.7581 109.43 12.4938 110.837 13.965C112.268 15.4133 112.983 17.8501 112.983 21.2754V26.6202C112.983 27.5627 112.694 28.3443 112.118 28.965C111.541 29.5857 110.745 29.8961 109.73 29.8961C108.623 29.8961 107.792 29.5857 107.239 28.965C106.708 28.3443 106.443 27.5857 106.443 26.6892V25.8961H105.751C105.751 26.4938 105.635 27.103 105.405 27.7237C105.197 28.3443 104.747 28.8616 104.055 29.2754C103.386 29.6892 102.313 29.8961 100.837 29.8961ZM101.183 22.3443C101.183 22.7351 101.321 23.011 101.598 23.1719C101.898 23.3328 102.532 23.4133 103.501 23.4133C104.378 23.4133 104.989 23.3328 105.335 23.1719C105.681 23.011 105.854 22.7351 105.854 22.3443C105.854 21.9765 105.681 21.7237 105.335 21.5857C104.989 21.4248 104.378 21.3443 103.501 21.3443C102.532 21.3443 101.898 21.4248 101.598 21.5857C101.321 21.7237 101.183 21.9765 101.183 22.3443Z" fill="#007AFF"/>
<path d="M121.889 29.8961C120.551 29.8961 119.456 29.4593 118.602 28.5857C117.772 27.7122 117.01 26.2754 116.318 24.2754L113.688 16.4823C113.388 15.6087 113.377 14.7237 113.654 13.8271C113.931 12.9305 114.565 12.3214 115.557 11.9995C116.48 11.6777 117.322 11.7007 118.083 12.0685C118.844 12.4363 119.375 13.0685 119.675 13.965L122.512 22.4133C122.835 23.4018 123.17 24.0685 123.516 24.4133C123.862 24.7351 124.323 24.8041 124.9 24.6202C125.384 24.4593 125.684 24.1145 125.8 23.5857C125.938 23.034 125.777 22.0915 125.315 20.7581L123.897 16.4823C123.597 15.5857 123.585 14.7007 123.862 13.8271C124.162 12.9305 124.808 12.3214 125.8 11.9995C126.722 11.6777 127.565 11.7007 128.326 12.0685C129.087 12.4363 129.618 13.0685 129.918 13.965L132.824 22.7926C133.009 23.3214 133.297 23.8041 133.689 24.2409C134.082 24.6777 134.589 24.8041 135.212 24.6202C135.696 24.4593 136.008 24.1374 136.146 23.6547C136.308 23.1719 136.285 22.6087 136.077 21.965C135.8 21.0915 135.489 20.4018 135.143 19.8961C134.82 19.3903 134.497 18.9535 134.174 18.5857C133.874 18.2179 133.62 17.8271 133.413 17.4133C133.228 16.9995 133.113 16.4363 133.067 15.7237C133.02 14.988 133.17 14.3443 133.516 13.7926C133.886 13.2179 134.37 12.7696 134.97 12.4478C135.593 12.1259 136.273 11.965 137.011 11.965C138.142 11.965 139.053 12.3443 139.745 13.103C140.46 13.8386 140.818 14.7122 140.818 15.7237C140.818 16.0915 140.76 16.5742 140.645 17.1719C140.529 17.7696 140.38 18.3214 140.195 18.8271L138.742 22.5857C138.442 23.4133 138.096 24.2639 137.703 25.1374C137.334 25.988 136.896 26.7696 136.389 27.4823C135.904 28.1949 135.339 28.7811 134.693 29.2409C134.047 29.6777 133.297 29.8961 132.444 29.8961C130.967 29.8961 129.779 29.5168 128.879 28.7581C128.003 27.9995 127.311 26.7466 126.803 24.9995H126.457C126.157 26.4248 125.661 27.5972 124.969 28.5168C124.277 29.4363 123.251 29.8961 121.889 29.8961Z" fill="#007AFF"/>
<path d="M148.961 36.9995C147.416 36.9995 146.147 36.7466 145.155 36.2409C144.186 35.7351 143.425 35.0685 142.871 34.2409C142.41 33.5282 142.144 32.7811 142.075 31.9995C142.029 31.2179 142.179 30.4938 142.525 29.8271C142.871 29.1374 143.39 28.6087 144.082 28.2409C144.797 27.8501 145.512 27.7007 146.228 27.7926C146.943 27.8616 147.6 28.1259 148.2 28.5857C148.8 29.0225 149.261 29.5972 149.584 30.3099C149.93 31.0685 150.276 31.6202 150.622 31.965C150.991 32.3328 151.464 32.4133 152.041 32.2064C152.595 32.0225 152.791 31.5168 152.629 30.6892C152.491 29.8616 152.191 28.8846 151.73 27.7581H150.449C149.457 27.7581 148.465 27.4018 147.473 26.6892C146.481 25.9765 145.651 24.8501 144.982 23.3099L142.144 16.7581C141.706 15.7236 141.66 14.7696 142.006 13.8961C142.375 13.0225 143.033 12.3903 143.978 11.9995C144.855 11.6087 145.72 11.5857 146.574 11.9305C147.427 12.2754 148.096 13.011 148.581 14.1374L151.211 20.2409C151.649 21.2294 152.122 21.942 152.629 22.3788C153.16 22.8156 153.714 22.8846 154.29 22.5857C154.798 22.3099 155.075 21.9305 155.121 21.4478C155.167 20.942 154.925 20.3328 154.394 19.6202C154.163 19.2984 153.887 18.942 153.564 18.5512C153.264 18.1604 152.987 17.7122 152.733 17.2064C152.502 16.6777 152.387 16.0915 152.387 15.4478C152.387 14.3673 152.756 13.4823 153.494 12.7926C154.233 12.08 155.202 11.7237 156.401 11.7237C157.485 11.7237 158.351 12.0685 158.996 12.7581C159.665 13.4478 160 14.3443 160 15.4478C160 16.2294 159.908 17.0915 159.723 18.034C159.539 18.9765 159.331 19.8501 159.1 20.6547L156.609 29.7237C156.24 31.08 155.755 32.3099 155.155 33.4133C154.556 34.5168 153.76 35.3903 152.768 36.034C151.776 36.6777 150.507 36.9995 148.961 36.9995Z" fill="#007AFF"/>
</svg>
